<svg width="138" height="138" viewBox="0 0 138 138" fill="none" xmlns="http://www.w3.org/2000/svg">
<g clip-path="url(#clip0_0_1458)">
<path d="M47.6305 14.6738C45.5071 15.2027 43.5846 16.3408 42.0995 17.948C40.6144 19.5552 39.6314 21.5615 39.2716 23.72C38.9939 25.6726 39.2989 27.6637 40.1483 29.4436C40.9978 31.2235 42.3538 32.713 44.0465 33.7252L115.002 78.0631C116.41 78.9428 118.109 79.2272 119.727 78.8537C121.344 78.4803 122.747 77.4796 123.627 76.0718C124.507 74.664 124.791 72.9644 124.418 71.3469C124.044 69.7294 123.043 68.3265 121.636 67.4468L112.849 61.9563C109.974 30.0756 77.4159 7.14322 47.6305 14.6738ZM97.7279 52.5076L55.2629 25.9725C71.0052 23.5525 93.0307 36.2281 97.7279 52.5076ZM34.0544 42.243L55.2869 55.5105C60.4538 58.7516 64.3788 63.6383 66.4291 69.3827C68.4793 75.1272 68.5355 81.3947 66.5884 87.1749L97.3118 106.373C98.7196 107.253 99.7203 108.656 100.094 110.273C100.467 111.891 100.183 113.59 99.3031 114.998C98.4234 116.406 97.0205 117.407 95.403 117.78C93.7855 118.153 92.0859 117.869 90.6781 116.989L59.9547 97.7912C55.613 102.075 49.9551 104.772 43.8933 105.448C37.8314 106.123 31.7188 104.737 26.5406 101.514L5.30812 88.2467C3.90032 87.367 2.89963 85.9641 2.5262 84.3466C2.15277 82.7291 2.43719 81.0295 3.31688 79.6217C4.19657 78.2139 5.59948 77.2132 7.21698 76.8398C8.83448 76.4663 10.5341 76.7507 11.9419 77.6304L33.1744 90.898C35.5157 92.3487 38.2196 93.1077 40.9739 93.0875C43.7281 93.0673 46.4206 92.2686 48.7404 90.7837L16.3644 70.5529C14.9566 69.6732 13.9559 68.2703 13.5825 66.6528C13.209 65.0353 13.4935 63.3357 14.3732 61.9279C15.2528 60.5201 16.6558 59.5195 18.2733 59.146C19.8908 58.7726 21.5904 59.057 22.9982 59.9367L55.3741 80.1675C55.6918 77.4315 55.2294 74.6614 54.0402 72.177C52.8509 69.6926 50.9834 67.5952 48.6531 66.1267L27.4207 52.8592C26.0129 51.9795 25.0122 50.5766 24.6387 48.9591C24.2653 47.3416 24.5497 45.642 25.4294 44.2342C26.3091 42.8264 27.712 41.8257 29.3295 41.4523C30.947 41.0789 32.6466 41.3633 34.0544 42.243Z" fill="black" fill-opacity="0.4"/>
</g>
<defs>
<clipPath id="clip0_0_1458">
<rect width="100" height="100" fill="white" transform="translate(0 84.9298) scale(1.00148) rotate(-58)"/>
</clipPath>
</defs>
</svg>
