<svg width="132" height="132" viewBox="0 0 132 132" fill="none" xmlns="http://www.w3.org/2000/svg">
<g clip-path="url(#clip0_0_1472)">
<path d="M80.0455 65.7251L98.3501 25.1147C99.5332 22.4805 99.8887 19.5492 99.3696 16.7085C98.8506 13.8679 97.4814 11.2517 95.4432 9.20611C93.3539 7.03927 90.6566 5.55694 87.7074 4.95476C84.7582 4.35259 81.6957 4.65889 78.9241 5.83322L13.7415 33.5016C10.9685 34.678 8.6178 36.6682 7.00005 39.2091C5.38229 41.75 4.57366 44.7221 4.68105 47.7324C4.74586 50.6461 5.69818 53.4707 7.4108 55.8288C9.12342 58.187 11.5148 59.9665 14.2655 60.9295L56.0891 75.9304C58.567 76.7885 61.1938 77.1325 63.8091 76.9414L74.9587 103.208L63.3755 108.125C61.8394 108.777 60.6253 110.013 60.0002 111.56C59.3751 113.107 59.3902 114.839 60.0423 116.375C60.6943 117.911 61.9297 119.125 63.4769 119.75C65.0241 120.375 66.7562 120.36 68.2923 119.708L103.042 104.958C104.578 104.306 105.792 103.07 106.417 101.523C107.042 99.9761 107.027 98.244 106.375 96.7079C105.723 95.1719 104.488 93.9578 102.94 93.3327C101.393 92.7076 99.6611 92.7227 98.1251 93.3747L86.5419 98.2915L75.3972 72.0362C77.3604 70.2711 78.9422 68.1235 80.0455 65.7251ZM42.5791 57.7148L65.2358 48.0976C66.7719 47.4456 67.986 46.2101 68.6111 44.6629C69.2362 43.1157 69.2211 41.3836 68.5691 39.8476C67.9171 38.3116 66.6816 37.0974 65.1344 36.4723C63.5872 35.8472 61.8551 35.8624 60.3191 36.5144L25.1997 51.4672L18.3582 49.0262C18.0155 48.9165 17.7202 48.6936 17.521 48.3939C17.3217 48.0942 17.2304 47.7357 17.2619 47.3772C17.2326 46.8982 17.3507 46.4217 17.6004 46.0119C17.85 45.602 18.2192 45.2785 18.6583 45.0848L83.8409 17.4164C84.2852 17.2351 84.7745 17.1943 85.2427 17.2994C85.7109 17.4045 86.1358 17.6506 86.46 18.0044C86.7502 18.2576 86.9445 18.603 87.0102 18.9825C87.0758 19.362 87.0089 19.7526 86.8207 20.0886L68.5977 60.5049C67.9056 62.0268 66.6703 63.2356 65.1337 63.8946C63.5971 64.5536 61.8699 64.6153 60.2902 64.0676L42.5791 57.7148Z" fill="black" fill-opacity="0.4"/>
</g>
<defs>
<clipPath id="clip0_0_1472">
<rect width="100" height="100" fill="white" transform="translate(0 39.3344) scale(1.00668) rotate(-23)"/>
</clipPath>
</defs>
</svg>
