<svg width="48" height="48" viewBox="0 0 48 48" fill="none" xmlns="http://www.w3.org/2000/svg">
<path d="M24 44C26.5 44 28.8417 43.5334 31.025 42.6C33.2083 41.6667 35.1167 40.3834 36.75 38.75C38.3833 37.1167 39.6667 35.2084 40.6 33.025C41.5333 30.8417 42 28.5 42 26H39C39 30.1667 37.5447 33.7084 34.634 36.625C31.7233 39.5417 28.1787 41 24 41C19.8213 41 16.2767 39.5447 13.366 36.634C10.4553 33.7234 9 30.1787 9 26C9 21.8214 10.4167 18.2767 13.25 15.366C16.0833 12.4554 19.5833 11 23.75 11H24.85L21.2 14.65L23.3 16.75L30.65 9.40005L23.3 2.05005L21.25 4.10005L25.15 8.00005H24C21.5 8.00005 19.1583 8.46672 16.975 9.40005C14.7917 10.3334 12.8833 11.6167 11.25 13.25C9.61666 14.8834 8.33333 16.7917 7.4 18.975C6.46666 21.1584 6 23.5 6 26C6 28.5 6.46666 30.8417 7.4 33.025C8.33333 35.2084 9.61666 37.1167 11.25 38.75C12.8833 40.3834 14.7917 41.6667 16.975 42.6C19.1583 43.5334 21.5 44 24 44Z" fill="white"/>
<path d="M18 21.9V32.5H20.5V19.45H15.3V21.9H18Z" fill="white"/>
<path fill-rule="evenodd" clip-rule="evenodd" d="M25.35 32.5C24.7267 32.5 24.2042 32.2891 23.7825 31.8675C23.3608 31.4458 23.15 30.9233 23.15 30.3V21.65C23.15 21.0266 23.3608 20.5041 23.7825 20.0825C24.2042 19.6608 24.7267 19.45 25.35 19.45H29.5C30.1233 19.45 30.6458 19.6608 31.0675 20.0825C31.4892 20.5041 31.7 21.0266 31.7 21.65V30.3C31.7 30.9233 31.4892 31.4458 31.0675 31.8675C30.6458 32.2891 30.1233 32.5 29.5 32.5H25.35ZM29.2 30H25.65V21.9H29.2V30Z" fill="white"/>
</svg>
