<svg width="135" height="109" viewBox="0 0 135 109" fill="none" xmlns="http://www.w3.org/2000/svg">
<path d="M84.9886 28.2227L79.1281 32.3263L77.0255 28.2944C75.4495 24.6349 72.3566 21.8893 68.4931 20.7361C64.3407 19.499 59.8968 20.2394 56.2892 22.7654L50.6618 26.7057L47.6941 20.7449C47.2255 19.8056 47.5089 18.6923 48.3663 18.092L57.8892 11.4239C60.7286 9.43576 61.4219 5.52115 59.4313 2.67831C57.4408 -0.164522 53.5251 -0.851947 50.6857 1.13623L41.1627 7.8043C35.1753 11.9968 33.191 19.7897 36.4462 26.3363L40.2575 33.9909L33.958 38.4019L7.37237 33.7081C3.95815 33.1091 0.700373 35.3902 0.0955287 38.8034C-0.503485 42.2176 1.77763 45.4754 5.19083 46.0802L127.63 67.6695C131.046 68.2719 134.3 65.9932 134.903 62.5766C135.508 59.1634 133.224 55.9022 129.81 55.3032L128.3 55.0369C127.902 51.1554 126.519 47.3916 124.262 44.1681L117.058 33.8804C109.776 23.4795 95.3885 20.9457 84.991 28.2261L84.9886 28.2227ZM106.768 41.0805L107.969 42.7951L98.096 49.7081L80.6048 46.6239L92.1921 38.5104C96.9211 35.1991 103.459 36.355 106.768 41.0805ZM63.4962 33.0507C64.765 32.2645 65.4592 32.9129 65.7677 33.857L68.7546 39.5898L67.8459 40.2261C66.4124 41.2298 65.1574 42.4153 64.0032 43.6936L58.6567 42.7509L56.3256 38.0716L63.4962 33.0507ZM103.003 71.8247L120.226 74.8616C119.689 75.3199 119.191 75.8214 118.605 76.232L78.0064 104.659C68.9943 110.97 56.7839 109.815 49.5992 101.977L19.1726 68.7779C15.8808 65.6606 14.225 60.8508 15.3256 56.3648L27.6453 58.5371C27.3004 59.351 27.8491 59.6822 28.256 60.1026L32.6321 64.878L38.863 60.5151L56.3542 63.5992L41.1936 74.2148L58.8541 93.4883C61.7961 96.6973 66.9323 97.0769 70.8004 94.3684L77.4737 89.6957C74.3502 88.0448 71.5527 85.6698 69.3892 82.5801L62.1857 72.2924C60.3944 69.7342 59.2335 66.9084 58.6024 63.9926L91.3401 69.7652L81.0524 76.9687C84.5853 80.321 90.1139 80.8449 94.253 77.9467L103.003 71.8247Z" fill="black" fill-opacity="0.4"/>
</svg>
