<svg width="86" height="132" viewBox="0 0 86 132" fill="none" xmlns="http://www.w3.org/2000/svg">
<path d="M50.4639 50.8371C53.1223 48.6064 57.0902 48.9536 59.3208 51.6119C61.5514 54.2703 61.2043 58.2381 58.5459 60.4688C55.8876 62.6994 51.9197 62.3522 49.6891 59.6939C47.4584 57.0355 47.8056 53.0677 50.4639 50.8371ZM51.6082 71.7613C48.9498 73.9919 48.6027 77.9598 50.8333 80.6181C53.0639 83.2765 57.0318 83.6236 59.6901 81.393C62.3485 79.1624 62.6956 75.1945 60.465 72.5362C58.2344 69.8778 54.2665 69.5307 51.6082 71.7613ZM28.6676 44.5065C30.9009 47.168 34.8628 47.5147 37.5244 45.2813C37.5244 45.2813 48.7646 35.8497 50.2244 19.1634C50.8119 12.4827 47.7765 6.23762 45.1742 2.21698C43.455 -0.43827 39.6938 -0.767337 37.5397 1.54904C34.2787 5.05671 30.2077 10.683 29.6235 17.3611C29.2949 21.1164 30.0485 25.4245 31.2011 29.5235C25.3385 24.9232 20.1564 23.3572 16.963 22.4203C13.6305 21.4416 10.1367 23.3611 9.16164 26.685C8.1861 30.0148 10.0965 33.5109 13.4263 34.4864C17.0317 35.5426 22.4876 37.1414 28.6676 44.5065ZM63.0197 27.253C60.0194 25.5031 56.1726 26.526 54.4232 29.5204C52.6733 32.5207 53.6898 36.3728 56.6906 38.1168C59.6119 39.8182 62.202 42.0053 64.3976 44.6219C84.5217 68.6048 67.4666 91.2865 35.6691 117.968C33.014 120.196 29.0402 119.848 26.8123 117.193C26.0903 116.332 25.6173 115.312 25.4317 114.237C25.4958 113.674 25.7281 112.073 26.5361 108.075C28.3834 98.9635 25.9314 90.0623 19.447 82.3345C12.4722 74.0223 10.6514 62.6001 14.6987 52.5184C15.989 49.2964 14.4263 45.6345 11.2044 44.3441C7.98564 43.0511 4.32421 44.6079 3.03011 47.8384C-2.74496 62.2313 -0.147111 78.5438 9.81525 90.4164C13.8077 95.1745 15.2863 100.275 14.2128 105.574C12.7698 112.683 12.753 114.065 12.8832 115.263C13.2976 118.959 14.7829 122.417 17.1779 125.272C23.8617 133.237 35.783 134.28 43.7484 127.596C62.4821 111.877 106.354 75.0635 74.0266 36.5367C70.8962 32.806 67.1948 29.6858 63.0197 27.253Z" fill="black" fill-opacity="0.4"/>
</svg>
