<svg width="24" height="24" viewBox="0 0 24 24" fill="none" xmlns="http://www.w3.org/2000/svg">
<path d="M19.9 21C17.9167 21 15.9167 20.5375 13.9 19.6125C11.8833 18.6875 10.025 17.375 8.325 15.675C6.625 13.975 5.3125 12.1167 4.3875 10.1C3.4625 8.08333 3 6.08333 3 4.1C3 3.78567 3.10475 3.52375 3.31425 3.31425C3.52375 3.10475 3.78567 3 4.1 3H7.78325C8.01658 3 8.21942 3.08192 8.39175 3.24575C8.56392 3.40975 8.67775 3.61117 8.73325 3.85L9.39875 7.11075C9.43292 7.35908 9.42775 7.57775 9.38325 7.76675C9.33892 7.95558 9.24875 8.11792 9.11275 8.25375L6.64175 10.75C7.04175 11.4445 7.47925 12.0987 7.95425 12.7125C8.42925 13.3263 8.95283 13.9111 9.525 14.4668C10.1083 15.0611 10.7223 15.6069 11.3668 16.1043C12.0111 16.6014 12.6888 17.0444 13.4 17.4332L15.7667 15.0168C15.9277 14.8444 16.1216 14.7236 16.3483 14.6543C16.5751 14.5848 16.7979 14.5667 17.0167 14.6L20.15 15.2668C20.3945 15.3334 20.5972 15.4628 20.7583 15.655C20.9194 15.8472 21 16.0622 21 16.3V19.9C21 20.2143 20.8953 20.4762 20.6858 20.6858C20.4762 20.8953 20.2143 21 19.9 21ZM5.825 9.2L7.725 7.28325L7.2 4.66675H4.675C4.725 5.36108 4.83892 6.07775 5.01675 6.81675C5.19442 7.55558 5.46383 8.35 5.825 9.2ZM14.9583 18.2333C15.6306 18.5389 16.3459 18.7862 17.1042 18.975C17.8626 19.1638 18.6056 19.2778 19.3333 19.3167V16.8L16.8333 16.2918L14.9583 18.2333Z" fill="black"/>
</svg>
