<svg width="48" height="48" viewBox="0 0 48 48" fill="none" xmlns="http://www.w3.org/2000/svg">
<path d="M23.993 40C23.331 40 22.7666 39.7643 22.3 39.293C21.8333 38.8217 21.6 38.255 21.6 37.593C21.6 36.931 21.8356 36.3667 22.307 35.9C22.7783 35.4333 23.345 35.2 24.007 35.2C24.669 35.2 25.2333 35.4357 25.7 35.907C26.1666 36.3783 26.4 36.945 26.4 37.607C26.4 38.269 26.1643 38.8333 25.693 39.3C25.2216 39.7667 24.655 40 23.993 40ZM23.993 26.4C23.331 26.4 22.7666 26.1643 22.3 25.693C21.8333 25.2217 21.6 24.655 21.6 23.993C21.6 23.331 21.8356 22.7667 22.307 22.3C22.7783 21.8333 23.345 21.6 24.007 21.6C24.669 21.6 25.2333 21.8357 25.7 22.307C26.1666 22.7783 26.4 23.345 26.4 24.007C26.4 24.669 26.1643 25.2333 25.693 25.7C25.2216 26.1667 24.655 26.4 23.993 26.4ZM23.993 12.8C23.331 12.8 22.7666 12.5643 22.3 12.093C21.8333 11.6217 21.6 11.055 21.6 10.393C21.6 9.731 21.8356 9.16667 22.307 8.7C22.7783 8.23333 23.345 8 24.007 8C24.669 8 25.2333 8.23567 25.7 8.707C26.1666 9.17833 26.4 9.745 26.4 10.407C26.4 11.069 26.1643 11.6333 25.693 12.1C25.2216 12.5667 24.655 12.8 23.993 12.8Z" fill="white"/>
</svg>
