<svg width="110" height="116" viewBox="0 0 110 116" fill="none" xmlns="http://www.w3.org/2000/svg">
<path d="M42.9912 68.8971C41.6285 68.7049 40.3977 67.9795 39.5694 66.8804C38.7412 65.7812 38.3831 64.3982 38.574 63.0352C40.2091 59.4973 42.4359 56.2643 45.1586 53.4755C47.0072 56.9067 48.2566 60.6283 48.8531 64.4799C48.6609 65.8427 47.9355 67.0734 46.8364 67.9017C45.7372 68.7299 44.3542 69.088 42.9912 68.8971ZM67.2528 50.6147C67.4437 49.2517 67.0856 47.8687 66.2574 46.7696C65.4291 45.6704 64.1984 44.945 62.8356 44.7528C58.984 45.3493 55.2624 46.5988 51.8312 48.4473C54.62 51.1701 57.853 53.3969 61.3909 55.0319C62.7539 55.2228 64.1369 54.8648 65.2361 54.0365C66.3352 53.2082 67.0606 51.9775 67.2528 50.6147ZM101.852 50.1468L108.559 64.3426C109.983 67.3848 110.321 70.8235 109.517 74.0849C108.712 77.3463 106.813 80.233 104.137 82.2633L63.2506 113.073C60.5606 115.086 57.2616 116.116 53.9042 115.99C50.5468 115.864 47.3342 114.59 44.8028 112.381L33.0045 102.027C30.4806 102.254 27.9406 101.832 25.6251 100.803C23.3096 99.773 21.2952 98.1694 19.7727 96.1437C9.88984 83.0287 15.8919 54.6064 38.4386 37.6162C60.9853 20.6261 89.961 22.6908 99.8439 35.8058C101.371 37.8277 102.358 40.2061 102.709 42.7156C103.061 45.2252 102.766 47.783 101.852 50.1468ZM29.7816 88.6015C31.112 90.2143 31.9594 89.5758 32.7068 89.0126L41.0475 82.7274C41.7143 83.6122 42.7053 84.196 43.8024 84.3502C44.8996 84.5044 46.0131 84.2164 46.8979 83.5496C47.7827 82.8828 48.3665 81.8919 48.5207 80.7947C48.6749 79.6976 48.3869 78.5841 47.7201 77.6992L57.729 70.157C58.3958 71.0418 59.3868 71.6256 60.4839 71.7798C61.5811 71.9339 62.6946 71.646 63.5794 70.9792C64.4642 70.3124 65.048 69.3215 65.2022 68.2243C65.3564 67.1271 65.0684 66.0137 64.4016 65.1288L74.4105 57.5866C75.0773 58.4714 76.0683 59.0552 77.1654 59.2094C78.2626 59.3635 79.3761 59.0756 80.2609 58.4088C81.1457 57.742 81.7295 56.7511 81.8837 55.6539C82.0378 54.5567 81.7499 53.4433 81.0831 52.5584L89.4239 46.2732C90.1712 45.7101 91.0186 45.0715 89.7621 43.2513C85.0859 37.0458 64.3305 33.7977 45.9808 47.6251C27.6312 61.4526 25.0325 82.2992 29.7816 88.6015ZM97.2205 69.6905L93.2108 61.2042C91.987 64.4167 89.7803 67.1608 86.9053 69.0455C84.0303 70.9302 80.6337 71.8592 77.1997 71.7002C76.3235 75.4131 74.176 78.7025 71.1293 80.9983C68.0826 83.2941 64.3288 84.4518 60.5182 84.2706C59.7301 87.6164 57.9057 90.628 55.3053 92.8759C52.7049 95.1238 49.4611 96.4934 46.0365 96.7893L53.0888 102.983C53.4491 103.301 53.9082 103.485 54.3887 103.505C54.8691 103.524 55.3414 103.377 55.7259 103.088L96.6122 72.2778C96.9982 71.9842 97.27 71.5654 97.3809 71.0934C97.4919 70.6213 97.4352 70.1253 97.2205 69.6905ZM28.3585 13.8273L18.3496 21.3695L28.406 34.7147L38.4149 27.1725L28.3585 13.8273ZM46.7082 -0.000139789L36.6993 7.5421L46.7556 20.8873L56.7645 13.3451L46.7082 -0.000139789ZM10.0089 27.6548L3.97205e-06 35.197L10.0563 48.5422L20.0652 40.9999L10.0089 27.6548Z" fill="black" fill-opacity="0.4"/>
</svg>
