<svg width="136" height="136" viewBox="0 0 136 136" fill="none" xmlns="http://www.w3.org/2000/svg">
<g clip-path="url(#clip0_0_1478)">
<path d="M61.6349 14.0473L57.9168 27.0138L69.9376 30.4607L73.6557 17.4942L61.6349 14.0473Z" fill="black" fill-opacity="0.4"/>
<path d="M25.619 34.0136L22.1721 46.0345L34.9221 49.6905L38.369 37.6697L25.619 34.0136Z" fill="black" fill-opacity="0.4"/>
<path d="M49.218 21.2193L38.2807 27.282L45.3538 40.0422L56.2911 33.9795L49.218 21.2193Z" fill="black" fill-opacity="0.4"/>
<path d="M43.971 116.211L46.5145 128.461L71.2089 123.322L68.6675 111.077L62.6122 112.336L61.296 105.078C61.3981 105.021 61.5103 104.983 61.6124 104.926C64.9149 103.091 67.685 100.431 69.6524 97.205C71.2219 94.6641 72.2679 91.8352 72.7291 88.8845C73.1903 85.9337 73.0574 82.9206 72.3381 80.0219L70.8293 73.1041L75.7694 77.915C77.8532 80.094 80.3536 81.8322 83.122 83.0264C85.8905 84.2205 88.8706 84.8463 91.8856 84.8667C95.6629 84.9046 99.3855 83.9626 102.69 82.1327C102.792 82.0761 102.884 82.0013 102.986 81.9447L108.452 86.9218L104.175 91.3895L113.214 100.034L130.657 81.8148L121.617 73.1666L117.088 77.8933L111.616 72.896C113.77 68.5755 114.523 63.6903 113.77 58.9214C113.016 54.1526 110.793 49.7377 107.411 46.2922L93.2671 32.4949C90.5932 29.8373 86.9804 28.3396 83.2105 28.326C79.4406 28.3124 75.817 29.784 73.124 32.4222L61.7475 43.8231C60.0029 45.5909 58.7545 47.7869 58.128 50.1904C55.7575 49.4494 53.234 49.3444 50.8102 49.8858L35.1094 53.494C31.4497 54.3735 28.2836 56.659 26.2967 59.8557C24.3097 63.0524 23.6618 66.9031 24.4932 70.574L28.7391 90.082C29.886 94.7462 32.457 98.9374 36.0949 102.074C39.7328 105.21 44.2571 107.135 49.0394 107.582L50.3669 114.887L43.971 116.211ZM70.0722 53.9832C70.0657 53.7408 70.1079 53.4994 70.1964 53.2736C70.2849 53.0477 70.4177 52.8419 70.5872 52.6683L81.9673 41.2654C82.0664 41.1648 82.1788 41.0784 82.3015 41.0086C82.6637 40.832 83.0734 40.7777 83.4691 40.8541C83.8647 40.9305 84.2248 41.1334 84.4952 41.4322L92.7793 49.4986L74.7727 59.4798L70.7338 55.5467C70.5257 55.3427 70.3601 55.0995 70.2465 54.8312C70.1329 54.5628 70.0737 54.2746 70.0722 53.9832ZM37.9226 65.6797L53.6246 62.0565C53.8612 62.0058 54.1055 62.0029 54.3432 62.0479C54.581 62.0929 54.8073 62.1849 55.009 62.3186C55.2538 62.4704 55.4659 62.6696 55.6329 62.9044C55.7999 63.1391 55.9184 63.4048 55.9814 63.6859L57.1892 69.2266L39.1717 79.2138L36.7027 67.8811C36.5738 67.4274 36.6297 66.9412 36.8583 66.5286C37.087 66.1161 37.4696 65.8109 37.9226 65.6797Z" fill="black" fill-opacity="0.4"/>
</g>
<defs>
<clipPath id="clip0_0_1478">
<rect width="100" height="100" fill="white" transform="translate(0 48.5013) scale(1.00042) rotate(-29)"/>
</clipPath>
</defs>
</svg>
