<svg width="119" height="96" viewBox="0 0 119 96" fill="none" xmlns="http://www.w3.org/2000/svg">
<path d="M17.2918 44.8861C11.7317 43.3963 8.43367 37.6838 9.92348 32.1238C11.4133 26.5637 17.1257 23.2656 22.6858 24.7554C28.2459 26.2453 31.5439 31.9577 30.0541 37.5177C28.5643 43.0778 22.8519 46.3759 17.2918 44.8861ZM48.5278 81.3044L51.7642 69.2261C52.6574 65.8924 50.6768 62.4619 47.3432 61.5687L39.291 59.4111C35.9573 58.5179 32.5268 60.4985 31.6336 63.8321L28.3972 75.9105C27.5039 79.2441 29.4845 82.6746 32.8182 83.5678L40.8704 85.7254C44.2041 86.6187 47.6346 84.6381 48.5278 81.3044ZM20.3449 73.7529L23.5813 61.6745C24.4746 58.3409 22.494 54.9104 19.1603 54.0171L11.1081 51.8595C7.77446 50.9663 4.34395 52.9469 3.4507 56.2805L0.214314 68.3589C-0.67893 71.6925 1.30167 75.123 4.63531 76.0163L12.6876 78.1739C16.0212 79.0671 19.4517 77.0865 20.3449 73.7529ZM109.036 0.425821C115.707 2.21339 119.665 9.0693 117.878 15.7406C116.09 22.4119 109.234 26.3701 102.563 24.5826L96.6297 46.7263C95.7365 50.0599 92.31 52.0416 88.9723 51.1472L73.7576 47.0705L68.6874 52.6421C64.9956 56.693 59.4132 58.3301 54.1229 56.9125L41.1266 53.4302C39.7979 53.0742 35.7557 51.9911 33.858 48.1383C31.8364 43.5403 33.6488 39.7237 35.1833 36.7345L48.3442 17.5717L50.4597 9.67649C51.6993 5.05047 55.9071 1.87573 60.6983 1.95128L80.6562 2.28903C82.8567 2.32201 85.0647 2.63315 87.2147 3.20923L95.5407 5.44018C98.4581 1.20334 103.786 -0.980931 109.036 0.425821ZM91.5635 17.3201L83.9783 15.2876C82.8228 14.978 81.6376 14.8114 80.456 14.7926L62.1184 14.479L60.1453 21.8428C59.9608 22.5313 59.6618 23.1804 59.2597 23.7631L50.4995 36.519L63.3227 39.955L65.3655 37.7104C68.0004 34.8176 71.9866 33.646 75.7671 34.659L86.1666 37.4456L91.5606 17.315L91.5635 17.3201ZM78.2938 59.0005C81.04 58.4462 83.932 58.4271 86.8147 59.1995C96.8035 61.876 102.754 72.1828 100.078 82.1716C97.4064 92.2697 87.0176 97.8661 77.1056 95.4346L65.0272 92.1982C59.4792 90.7116 56.1712 84.9879 57.6589 79.4359L59.7129 71.7702C61.0085 66.9348 64.6302 63.1456 69.3965 61.6394C71.19 61.162 76.5236 59.1649 78.2927 59.0046L78.2938 59.0005ZM83.5783 71.2779C80.293 70.3976 76.8145 72.348 75.9209 75.6989C75.0288 79.0285 77.0123 82.4641 80.3419 83.3562C83.6715 84.2484 87.1072 82.2649 87.9993 78.9352C88.8915 75.6056 86.9079 72.17 83.5783 71.2779Z" fill="black" fill-opacity="0.4"/>
</svg>
