<svg width="133" height="133" viewBox="0 0 133 133" fill="none" xmlns="http://www.w3.org/2000/svg">
<g clip-path="url(#clip0_0_1466)">
<path d="M119.019 42.6781L118.137 44.5677L104.91 38.3996C101.08 36.619 96.8337 35.9302 92.6378 36.4093C88.442 36.8883 84.4599 38.5165 81.1304 41.1145L76.9467 39.1636C73.296 37.4674 69.2632 36.7619 65.2535 37.118C61.2438 37.4742 57.3984 38.8794 54.1038 41.1925L41.9614 38.2128C41.0258 37.9888 40.0415 38.0952 39.1754 38.514C38.3093 38.9327 37.6146 39.6381 37.2091 40.5105L36.5746 41.871C36.167 42.7424 36.0732 43.728 36.3092 44.6606C36.5451 45.5933 37.0963 46.4157 37.8692 46.9884L45.4101 52.5247L42.0617 59.7054L35.3842 54.2911C34.3818 53.8237 33.2349 53.7736 32.1956 54.1519C31.1563 54.5301 30.3099 55.3057 29.8425 56.3081L26.3178 63.8668C25.8504 64.8691 25.8004 66.0161 26.1786 67.0553C26.5569 68.0946 27.3325 68.941 28.3348 69.4084L39.061 71.4884C39.0963 75.8169 40.3558 80.047 42.694 83.6899C45.0321 87.3327 48.3535 90.2395 52.274 92.0743L56.4578 94.0252C56.6078 98.2456 57.9201 102.343 60.2502 105.865C62.5803 109.387 65.8376 112.197 69.663 113.986L82.8907 120.154L82.0095 122.044C81.3084 123.548 81.2333 125.268 81.8007 126.827C82.3681 128.386 83.5315 129.655 85.035 130.357C86.5386 131.058 88.259 131.133 89.8179 130.565C91.3768 129.998 92.6465 128.835 93.3476 127.331L130.357 47.9651C131.058 46.4615 131.133 44.7411 130.565 43.1822C129.998 41.6233 128.835 40.3537 127.331 39.6526C125.828 38.9515 124.107 38.8763 122.548 39.4437C120.989 40.0111 119.72 41.1745 119.019 42.6781ZM52.5185 66.8821L57.8055 55.5441C58.974 53.0382 61.0901 51.0992 63.6883 50.1535C66.2864 49.2079 69.1538 49.3331 71.6597 50.5016L73.5494 51.3827L59.4507 81.6174L57.561 80.7363C55.0552 79.5678 53.1161 77.4517 52.1705 74.8535C51.2248 72.2553 51.35 69.3879 52.5185 66.8821ZM75.8571 103.071C76.2301 101.207 76.0496 99.2748 75.3378 97.5121C74.626 95.7494 73.414 94.2335 71.8511 93.1512C74.3542 93.9038 77.0487 93.6887 79.4006 92.5484C81.7525 91.4082 83.5904 89.4261 84.5499 86.9948C85.8044 84.6989 86.1464 82.0142 85.5074 79.4771C84.8685 76.9401 83.2957 74.7376 81.1034 73.3097C83.6065 74.0623 86.3009 73.8471 88.6528 72.7069C91.0048 71.5667 92.8426 69.5846 93.8022 67.1533C95.0567 64.8574 95.3986 62.1727 94.7597 59.6356C94.1207 57.0986 92.5479 54.8961 90.3556 53.4682C92.189 53.958 94.125 53.9059 95.9293 53.3183C97.7336 52.7306 99.329 51.6325 100.522 50.157L112.85 55.9057L88.1777 108.816L75.8571 103.071Z" fill="black" fill-opacity="0.4"/>
<path d="M28.0802 60.0872C29.5401 56.9563 28.1856 53.2347 25.0547 51.7747C21.9238 50.3148 18.2021 51.6693 16.7422 54.8002C15.2822 57.9312 16.6368 61.6528 19.7677 63.1127C22.8986 64.5727 26.6202 63.2181 28.0802 60.0872Z" fill="black" fill-opacity="0.4"/>
<path d="M36.8919 41.1906C38.3518 38.0597 36.9973 34.3381 33.8664 32.8781C30.7354 31.4182 27.0138 32.7727 25.5538 35.9036C24.0939 39.0345 25.4484 42.7562 28.5794 44.2161C31.7103 45.6761 35.4319 44.3215 36.8919 41.1906Z" fill="black" fill-opacity="0.4"/>
</g>
<defs>
<clipPath id="clip0_0_1466">
<rect width="100" height="100" fill="white" transform="translate(0 90.7041) scale(1.00081) rotate(-65)"/>
</clipPath>
</defs>
</svg>
