<svg width="93" height="108" viewBox="0 0 93 108" fill="none" xmlns="http://www.w3.org/2000/svg">
<path d="M81.9824 11.386L78.6039 14.2209C63.5074 -0.780383 40.0569 -3.3652 22.0855 7.61717C21.9343 5.97466 21.3072 4.35903 20.1662 2.99927C17.1857 -0.552809 11.8945 -1.01572 8.34246 1.96483C4.79038 4.94538 4.32746 10.2365 7.30801 13.7886C8.44898 15.1483 9.93118 16.0465 11.5225 16.4806C-2.41375 32.2719 -3.94034 55.815 8.21161 73.2871L4.83312 76.122L12.9251 85.7656L22.9706 77.3365C23.4321 79.3814 24.0987 81.3967 25.1411 83.3048L38.6537 108L48.4871 99.7487L36.1811 77.2621C33.7904 72.8919 34.8226 67.3914 38.6415 64.187L53.4253 51.782C55.1461 50.1901 58.49 51.8706 57.8258 54.2192C58.4106 54.9227 45.878 67.7778 45.4886 68.4497L54.8263 76.8947L66.5358 64.051C69.0081 61.2917 70.3009 57.8186 70.4077 54.3162L72.8602 37.3147C73.1684 35.1881 74.9025 33.514 76.716 33.5862C79.4946 34.1361 80.2423 35.0206 80.2591 37.9262L74.7215 77.7299L88.7081 65.9938L92.7503 39.4688C93.3646 34.9326 92.0288 30.3181 89.0833 26.8078C88.2526 25.8177 87.2928 24.9742 86.2657 24.2201L90.0685 21.0292L81.9765 11.3855L81.9824 11.386ZM17.9131 65.1465C8.87685 51.146 11.4368 32.2357 24.5264 21.2521C37.6161 10.2686 56.6837 11.0313 68.9024 22.3615L17.9131 65.1465Z" fill="black" fill-opacity="0.4"/>
</svg>
