<svg width="59" height="59" viewBox="0 0 59 59" fill="none" xmlns="http://www.w3.org/2000/svg">
<path d="M29.5 29.5C30.8521 29.5 32.0096 29.0186 32.9724 28.0557C33.9353 27.0929 34.4167 25.9354 34.4167 24.5834C34.4167 23.2313 33.9353 22.0738 32.9724 21.111C32.0096 20.1481 30.8521 19.6667 29.5 19.6667C28.1479 19.6667 26.9905 20.1481 26.0276 21.111C25.0648 22.0738 24.5833 23.2313 24.5833 24.5834C24.5833 25.9354 25.0648 27.0929 26.0276 28.0557C26.9905 29.0186 28.1479 29.5 29.5 29.5ZM29.5 47.5688C34.4986 42.9799 38.2066 38.811 40.624 35.062C43.0413 31.313 44.25 27.984 44.25 25.075C44.25 20.609 42.8262 16.9523 39.9787 14.1047C37.1311 11.2571 33.6382 9.83335 29.5 9.83335C25.3618 9.83335 21.8689 11.2571 19.0214 14.1047C16.1738 16.9523 14.75 20.609 14.75 25.075C14.75 27.984 15.9587 31.313 18.3761 35.062C20.7934 38.811 24.5014 42.9799 29.5 47.5688ZM29.5 54.0834C22.9035 48.4702 17.9766 43.2564 14.7193 38.4422C11.462 33.628 9.83334 29.1722 9.83334 25.075C9.83334 18.9292 11.8103 14.033 15.7641 10.3865C19.7179 6.73995 24.2965 4.91669 29.5 4.91669C34.7035 4.91669 39.2821 6.73995 43.2359 10.3865C47.1898 14.033 49.1667 18.9292 49.1667 25.075C49.1667 29.1722 47.538 33.628 44.2807 38.4422C41.0234 43.2564 36.0965 48.4702 29.5 54.0834Z" fill="black"/>
</svg>
