<svg width="48" height="48" viewBox="0 0 48 48" fill="none" xmlns="http://www.w3.org/2000/svg">
<path d="M24 44C21.5 44 19.1583 43.5334 16.975 42.6C14.7917 41.6667 12.8833 40.3834 11.25 38.75C9.61667 37.1167 8.33333 35.2084 7.4 33.025C6.46667 30.8417 6 28.5 6 26H9C9 30.1667 10.4553 33.7084 13.366 36.625C16.2767 39.5417 19.8213 41 24 41C28.1787 41 31.7233 39.5447 34.634 36.634C37.5447 33.7234 39 30.1787 39 26C39 21.8214 37.5833 18.2767 34.75 15.366C31.9167 12.4554 28.4167 11 24.25 11H23.15L26.8 14.65L24.7 16.75L17.35 9.40005L24.7 2.05005L26.75 4.10005L22.85 8.00005H24C26.5 8.00005 28.8417 8.46672 31.025 9.40005C33.2083 10.3334 35.1167 11.6167 36.75 13.25C38.3833 14.8834 39.6667 16.7917 40.6 18.975C41.5333 21.1584 42 23.5 42 26C42 28.5 41.5333 30.8417 40.6 33.025C39.6667 35.2084 38.3833 37.1167 36.75 38.75C35.1167 40.3834 33.2083 41.6667 31.025 42.6C28.8417 43.5334 26.5 44 24 44ZM18 32.5V21.9H15.3V19.45H20.5V32.5H18ZM25.35 32.5C24.7267 32.5 24.2042 32.2892 23.7825 31.8675C23.3608 31.4459 23.15 30.9234 23.15 30.3V21.65C23.15 21.0267 23.3608 20.5042 23.7825 20.0826C24.2042 19.6609 24.7267 19.45 25.35 19.45H29.5C30.1233 19.45 30.6458 19.6609 31.0675 20.0826C31.4892 20.5042 31.7 21.0267 31.7 21.65V30.3C31.7 30.9234 31.4892 31.4459 31.0675 31.8675C30.6458 32.2892 30.1233 32.5 29.5 32.5H25.35ZM25.65 30H29.2V21.9H25.65V30Z" fill="white"/>
</svg>
