<svg width="98" height="101" viewBox="0 0 98 101" fill="none" xmlns="http://www.w3.org/2000/svg">
<path d="M32.2934 26.4359C32.707 25.1119 33.3924 23.8888 34.3056 22.8448C35.2188 21.8007 36.3397 20.9587 37.5969 20.3725C38.854 19.7863 40.2196 19.4688 41.6063 19.4404C42.9931 19.4119 44.3706 19.6731 45.6507 20.2073C47.0704 20.7214 48.2561 21.7319 48.9888 23.0521C49.7216 24.3723 49.9519 25.9131 49.6371 27.3898C49.3224 28.8666 48.484 30.1796 47.2766 31.0863C46.0693 31.9931 44.5746 32.4323 43.0686 32.3229C42.2478 33.3299 41.1375 34.0605 39.8879 34.4157C38.6383 34.771 37.3097 34.7338 36.0819 34.3092L35.9487 34.2608C34.4291 33.7042 33.1916 32.5687 32.5067 31.1025C31.8217 29.6362 31.7451 27.9585 32.2934 26.4359ZM57.9238 42.0284C57.8144 43.5343 58.2537 45.029 59.1604 46.2364C60.0672 47.4437 61.3802 48.2822 62.8569 48.5969C64.3337 48.9116 65.8745 48.6814 67.1947 47.9486C68.5149 47.2159 69.5254 46.0302 70.0395 44.6104C70.5736 43.3303 70.8348 41.9529 70.8064 40.5661C70.7779 39.1793 70.4604 37.8137 69.8742 36.5566C69.288 35.2995 68.446 34.1785 67.402 33.2653C66.3579 32.3521 65.1348 31.6668 63.8109 31.2531C62.2886 30.7061 60.6117 30.7836 59.1463 31.4687C57.681 32.1539 56.5462 33.391 55.9899 34.9099C55.5269 36.1496 55.4645 37.5033 55.8114 38.7803C56.1583 40.0574 56.8972 41.1934 57.9238 42.0284ZM85.4848 68.917C85.4057 69.0612 71.743 90.2792 71.743 90.2792C68.9453 94.7107 64.718 98.0538 59.761 99.7549C54.804 101.456 49.4147 101.413 44.4855 99.6332L15.0752 88.9287C10.1429 87.1138 5.97989 83.6662 3.27746 79.1587C0.575037 74.6511 -0.504141 69.3547 0.219149 64.149L3.27319 39.682C1.86661 37.1654 1.06485 34.356 0.931328 31.4761C0.797809 28.5961 1.33619 25.7246 2.50389 23.0886C3.67159 20.4526 5.43658 18.1245 7.65927 16.2883C9.88197 14.4522 12.5014 13.1583 15.3104 12.5091C17.0822 8.99806 19.9702 6.17503 23.5206 4.48352C27.0711 2.79201 31.0828 2.32784 34.9257 3.16394C36.9606 1.79579 39.2894 0.926633 41.7231 0.626988C44.1567 0.327344 46.6268 0.605653 48.9328 1.43934L50.4017 1.97399C55.6122 -0.41601 61.5572 -0.644757 66.936 1.3378C70.8198 2.76528 74.2204 5.26257 76.7448 8.54109C79.2693 11.8196 80.8145 15.7455 81.202 19.8652C84.8508 21.3899 87.955 23.9797 90.1089 27.2962C92.2629 30.6127 93.3667 34.5017 93.2759 38.4553C95.1814 40.8375 96.5075 43.6298 97.1496 46.612C97.7918 49.5942 97.7325 52.6848 96.9764 55.6402C96.2203 58.5956 94.7881 61.3349 92.7926 63.6423C90.7972 65.9497 88.2931 67.7621 85.4776 68.9366L85.4848 68.917ZM13.7732 28.5673C13.206 30.1256 13.2811 31.8455 13.9819 33.3485C14.6828 34.8515 15.952 36.0145 17.5103 36.5817L23.3861 38.7203C27.7323 40.3167 31.3275 43.4758 33.4695 47.5806C37.7459 45.7973 42.5364 45.687 46.8903 47.2717C51.2442 48.8564 54.8431 52.0201 56.9727 56.135C61.2523 54.3683 66.0366 54.2592 70.3923 55.8292L75.2888 57.6113C76.8819 58.1939 78.6284 58.202 80.2269 57.6344C81.8253 57.0667 83.1755 55.9589 84.0444 54.502C84.9133 53.0452 85.2463 51.3308 84.9861 49.6546C84.7259 47.9784 83.8887 46.4456 82.6191 45.3208C81.8103 44.6008 81.2024 43.6832 80.8547 42.6578C80.5071 41.6323 80.4317 40.5342 80.636 39.4708C80.9735 37.7747 80.6924 36.0137 79.8435 34.5069C78.9947 33.0001 77.6344 31.8471 76.0089 31.2567L72.738 30.0662C71.3834 29.5735 70.2406 28.6279 69.503 27.3894C68.7655 26.1509 68.4785 24.6956 68.6906 23.2698C68.9615 21.4853 68.7098 19.6606 67.966 18.0161C67.2223 16.3716 66.0183 14.9776 64.4994 14.0026C62.9805 13.0275 61.2119 12.5131 59.407 12.5215C57.6021 12.5299 55.8383 13.0608 54.3286 14.0499C53.5157 14.5805 52.5904 14.9145 51.626 15.0254C50.6616 15.1364 49.6847 15.0214 48.7725 14.6893L44.6555 13.1909C44.0507 12.9766 43.3946 12.9539 42.7764 13.1257C42.1583 13.2976 41.608 13.6558 41.2006 14.1515C40.3806 15.1473 39.2725 15.8652 38.0285 16.2066C36.7844 16.5479 35.4652 16.4962 34.2517 16.0584L32.9198 15.5736C31.6211 15.1033 30.1888 15.1669 28.937 15.7507C27.6851 16.3345 26.7157 17.3907 26.2412 18.6879L25.6196 20.3958C25.1772 21.6107 24.3691 22.6586 23.3065 23.3952C22.244 24.1318 20.9792 24.5209 19.6864 24.509C18.4034 24.4971 17.1479 24.8801 16.0901 25.6061C15.0323 26.3321 14.2234 27.3659 13.7732 28.5673ZM17.7262 76.4167C17.7262 76.4167 22.7947 58.6272 22.8461 58.4862C23.4132 56.9279 23.3382 55.208 22.6373 53.705C21.9365 52.2021 20.6672 51.039 19.1089 50.4718L14.7295 48.8779L12.6132 65.8077C12.3103 67.8843 12.6352 70.0041 13.5464 71.8945C14.4575 73.785 15.9131 75.3599 17.7262 76.4167ZM38.0413 83.9794L46.3773 66.8779C46.8174 65.3498 46.6587 63.7114 45.9335 62.2962C45.2084 60.8809 43.9713 59.7951 42.4739 59.2597C40.9765 58.7244 39.3314 58.7796 37.8733 59.4142C36.4152 60.0488 35.2537 61.2151 34.6251 62.6758L29.4666 80.8584L38.0413 83.9794ZM70.4906 69.1733L66.1151 67.5807C64.5567 67.0135 62.8369 67.0886 61.3339 67.7895C59.8309 68.4903 58.6679 69.7595 58.1007 71.3179C58.0266 71.5216 49.898 88.2238 49.898 88.2238C52.0257 88.7244 54.2566 88.5471 56.2786 87.7168C58.3005 86.8865 60.0123 85.4447 61.1742 83.5934L70.4906 69.1733Z" fill="black" fill-opacity="0.4"/>
</svg>
