<svg width="48" height="48" viewBox="0 0 48 48" fill="none" xmlns="http://www.w3.org/2000/svg">
<path d="M28 41.45V38.35C31.2333 37.4166 33.875 35.625 35.925 32.975C37.975 30.325 39 27.3166 39 23.95C39 20.5833 37.9833 17.5666 35.95 14.9C33.9167 12.2333 31.2667 10.45 28 9.54995V6.44995C32.1333 7.38328 35.5 9.47495 38.1 12.725C40.7 15.975 42 19.7166 42 23.95C42 28.1833 40.7 31.925 38.1 35.175C35.5 38.425 32.1333 40.5166 28 41.45ZM6 30V18H14L24 7.99995V40L14 30H6ZM27 32.4V15.55C28.8333 16.1166 30.2917 17.1833 31.375 18.75C32.4583 20.3166 33 22.0666 33 24C33 25.9 32.45 27.6333 31.35 29.2C30.25 30.7666 28.8 31.8333 27 32.4ZM21 15.6L15.35 21H9V27H15.35L21 32.45V15.6Z" fill="white"/>
</svg>
