<svg width="129" height="129" viewBox="0 0 129 129" fill="none" xmlns="http://www.w3.org/2000/svg">
<g clip-path="url(#clip0_0_1470)">
<path d="M117.138 37.3892C116.068 33.0232 113.109 29.3937 109.013 27.4298C104.799 25.4229 99.9748 25.3853 95.7515 27.3514L15.9528 64.5653C11.7281 66.5354 8.64682 70.2559 7.48859 74.7746C6.36013 79.1747 7.24266 83.7757 9.89648 87.397C17.1177 97.2415 26.9239 104.336 37.8121 108.299C52.4715 113.635 69.0902 113.293 84.0073 106.334C110.006 94.2102 123.939 65.2127 117.138 37.3892ZM84.1986 91.8548L70.3557 62.1687L101.003 73.3232C97.2068 80.7601 91.4695 87.2046 84.1986 91.8548ZM58.9514 67.4833L72.7943 97.1694C64.5544 99.7488 55.9337 100.003 47.7969 98.1302L58.9514 67.4833ZM101.071 38.7532C101.78 38.4262 102.576 38.395 103.301 38.6589C103.392 38.6919 103.487 38.7263 103.573 38.7711C104.063 39.0073 104.696 39.4744 104.917 40.3759C106.649 47.4729 106.659 54.6569 105.215 61.4681L75.5295 50.6636L101.071 38.7532ZM19.6747 77.8935C19.8917 77.0398 20.4734 76.3366 21.2689 75.9657L46.8109 64.0553L36.0078 93.7366C29.862 90.4644 24.3609 85.838 20.0417 79.9505C19.4955 79.2073 19.5395 78.4244 19.6747 77.8935Z" fill="black" fill-opacity="0.4"/>
</g>
<defs>
<clipPath id="clip0_0_1470">
<rect width="100" height="100" fill="white" transform="translate(34.4231) scale(1.00646) rotate(20)"/>
</clipPath>
</defs>
</svg>
