<svg width="79" height="118" viewBox="0 0 79 118" fill="none" xmlns="http://www.w3.org/2000/svg">
<path d="M44.2327 10.6345C44.6266 9.76676 44.9713 8.87753 45.2652 7.97104C45.7258 6.39333 45.5437 4.69749 44.7586 3.25359C43.9734 1.80968 42.6491 0.734924 41.0745 0.263841C39.493 -0.209078 37.7891 -0.041499 36.3301 0.730437C34.8711 1.50237 33.7739 2.81682 33.2752 4.39031C32.3663 6.71794 31.0952 8.88729 29.5089 10.818L25.9077 6.5262C24.8409 5.25488 23.3128 4.45939 21.6595 4.31475C20.0062 4.17011 18.3632 4.68815 17.0918 5.75492C15.8205 6.82169 15.025 8.3498 14.8804 10.0031C14.7358 11.6564 15.2538 13.2994 16.3206 14.5707L19.9245 18.8657C17.7479 20.0871 15.3935 20.9601 12.9468 21.4533C11.3606 21.7132 9.93519 22.5735 8.96614 23.856C7.99708 25.1384 7.5587 26.7446 7.74187 28.3415C7.92504 29.9384 8.71571 31.4036 9.94997 32.4334C11.1842 33.4631 12.7674 33.9784 14.3713 33.8723C15.3258 33.7403 16.2717 33.5521 17.204 33.3088C16.1974 39.2433 17.2031 45.344 20.0612 50.6414C20.8626 52.1091 22.1283 55.9864 16.7403 60.5074L11.9468 64.5296C-1.71803 75.9958 -3.94961 94.26 6.7496 107.011C17.4488 119.762 35.8231 120.736 49.4879 109.269C82.5058 81.564 88.1845 48.3014 64.6758 20.2848C62.1661 17.2967 59.0397 14.887 55.5109 13.2212C51.9821 11.5555 48.1347 10.673 44.2327 10.6345ZM41.4434 99.6823C32.978 106.786 22.6516 106.492 16.3367 98.9663C10.0217 91.4404 11.5259 81.22 19.9913 74.1167L24.7848 70.0945C34.9759 61.5431 34.5376 51.0521 31.0654 44.6751C29.9973 42.6877 29.4057 40.4792 29.3373 38.224C29.269 35.9687 29.7257 33.7285 30.6715 31.68L33.7472 35.3454C34.8139 36.6168 36.3421 37.4122 37.9953 37.5569C39.6486 37.7015 41.2917 37.1835 42.563 36.1167C43.8343 35.0499 44.6298 33.5218 44.7744 31.8686C44.9191 30.2153 44.401 28.5722 43.3343 27.3009L40.2532 23.6291C42.9176 22.9339 45.7243 23.0063 48.3493 23.8379C50.9743 24.6696 53.3107 26.2266 55.0887 28.3293C80.7534 58.9153 57.5561 86.1621 41.4434 99.6823Z" fill="black" fill-opacity="0.4"/>
</svg>
