<svg width="140" height="140" viewBox="0 0 140 140" fill="none" xmlns="http://www.w3.org/2000/svg">
<g clip-path="url(#clip0_0_1483)">
<path d="M100.496 84.4381L90.203 91.6453L78.1911 74.4905L88.484 67.2834L100.496 84.4381ZM59.7315 52.8667C59.6337 52.8074 59.6797 52.8365 59.7315 52.8667V52.8667ZM103.793 30.9984L126.164 76.9468C129.336 83.4696 127.323 91.2194 121.391 95.3731L76.2666 126.969C70.3345 131.123 62.3635 130.364 57.3236 125.16L21.793 88.4153L28.9774 83.3847C27.8097 80.8482 26.909 78.1962 26.3609 75.4201L24.55 66.2982C24.0377 63.7118 22.4431 60.4924 20.9344 58.3378L17.5034 60.7402L10.2963 50.4473L41.1749 28.8259L48.382 39.1188L44.9511 41.5211C46.4597 43.6758 48.9396 46.2753 51.1948 47.6414L59.7384 52.8619C59.7902 52.8921 59.842 52.9223 59.7384 52.8619C57.0039 32.5703 60.0296 10.3622 73.016 7.73208C75.306 7.26373 78.8419 7.2677 82.7028 9.94837C88.597 14.0431 93.5421 23.5883 96.5054 36.1011L103.793 30.9984ZM72.4235 52.9634L85.2896 43.9545C82.6094 29.0857 77.5791 21.4051 75.4433 20.1805C74.1029 21.3696 72.1566 26.1479 71.5336 34.0647L78.5738 38.4307L71.4546 43.4156C71.5729 45.695 72.3476 52.3876 72.4235 52.9634ZM39.5241 75.9998L55.183 65.0354C54.3721 64.3811 53.5375 63.7588 52.635 63.2147L44.6744 58.3887C40.9169 56.1112 37.17 52.3229 34.6548 48.7307L31.2238 51.1331C33.7391 54.7253 36.0175 59.5418 36.8724 63.8517L38.6823 72.9794C38.8849 74.0135 39.1867 75.0141 39.5241 75.9998ZM98.9367 49.7381L41.0599 90.2638L66.3497 116.421C67.0673 117.161 68.2086 117.272 69.056 116.679L114.18 85.0827C115.027 84.4893 115.313 83.3789 114.859 82.4446L98.9367 49.7381ZM71.3292 79.2953L61.0363 86.5024L73.0482 103.657L83.3411 96.45L71.3292 79.2953Z" fill="black" fill-opacity="0.4"/>
</g>
<defs>
<clipPath id="clip0_0_1483">
<rect width="100" height="100" fill="white" transform="translate(0 57.6569) scale(1.00522) rotate(-35)"/>
</clipPath>
</defs>
</svg>
