<svg width="140" height="140" viewBox="0 0 140 140" fill="none" xmlns="http://www.w3.org/2000/svg">
<g clip-path="url(#clip0_0_1610)">
<path d="M86.4678 53.3558C89.3087 51.3666 93.2287 52.0578 95.2178 54.8986C97.207 57.7395 96.5158 61.6595 93.675 63.6486C90.8342 65.6378 86.9142 64.9466 84.925 62.1058C82.9358 59.2649 83.627 55.3449 86.4678 53.3558ZM85.7845 74.2867C82.9437 76.2759 82.2525 80.1959 84.2416 83.0367C86.2308 85.8775 90.1508 86.5688 92.9916 84.5796C95.8325 82.5904 96.5237 78.6704 94.5345 75.8296C92.5453 72.9888 88.6253 72.2975 85.7845 74.2867ZM65.3197 45.1548C67.3112 47.9991 71.2254 48.6893 74.0697 46.6977C74.0697 46.6977 86.0814 38.287 88.9882 21.802C90.1549 15.2021 87.677 8.72036 85.4365 4.49092C83.9561 1.69772 80.2403 1.04251 77.894 3.16098C74.342 6.36904 69.799 11.6158 68.6357 18.2133C67.9815 21.9233 68.3565 26.2779 69.1469 30.4591C63.7111 25.3685 58.6884 23.3582 55.5908 22.1473C52.3584 20.8827 48.7128 22.4894 47.4526 25.7136C46.1914 28.9436 47.7888 32.5905 51.0189 33.8518C54.5162 35.2173 59.8086 37.2842 65.3197 45.1548ZM101.022 30.9701C98.1874 28.9666 94.2687 29.65 92.2662 32.4787C90.2627 35.3132 90.9393 39.2368 93.7748 41.2344C96.5349 43.1826 98.923 45.5856 100.881 48.3818C118.827 74.011 99.8718 95.1065 65.8916 118.9C63.0542 120.886 59.1284 120.194 57.1416 117.357C56.4978 116.437 56.1158 115.381 56.0247 114.294C56.1375 113.739 56.5082 112.166 57.6609 108.255C60.2935 99.3452 58.6277 90.27 52.8452 82.0117C46.6254 73.129 45.8075 61.5989 50.715 51.9145C52.2803 48.8192 51.0434 45.0374 47.9482 43.4722C44.8564 41.9045 41.0756 43.1355 39.5059 46.2389C32.5028 60.0649 33.6683 76.5312 42.5523 89.2188C46.1127 94.3035 47.1404 99.51 45.6101 104.693C43.5543 111.644 43.4173 113.018 43.4425 114.223C43.5332 117.938 44.7107 121.51 46.8464 124.561C52.8067 133.073 64.5842 135.149 73.0964 129.189C93.116 115.171 140 82.3427 111.171 41.1712C108.38 37.1845 104.967 33.7557 101.022 30.9701Z" fill="black" fill-opacity="0.4"/>
</g>
<defs>
<clipPath id="clip0_0_1610">
<rect width="100" height="100" fill="white" transform="translate(0 57.6569) scale(1.00522) rotate(-35)"/>
</clipPath>
</defs>
</svg>
