<svg width="59" height="59" viewBox="0 0 59 59" fill="none" xmlns="http://www.w3.org/2000/svg">
<path d="M18.5556 34.9722C17.7803 34.9722 17.1305 34.71 16.6061 34.1856C16.0817 33.6611 15.8194 33.0113 15.8194 32.2361C15.8194 31.4609 16.0817 30.811 16.6061 30.2866C17.1305 29.7622 17.7803 29.5 18.5556 29.5C19.3308 29.5 19.9806 29.7622 20.505 30.2866C21.0295 30.811 21.2917 31.4609 21.2917 32.2361C21.2917 33.0113 21.0295 33.6611 20.505 34.1856C19.9806 34.71 19.3308 34.9722 18.5556 34.9722ZM29.5 34.9722C28.7248 34.9722 28.0749 34.71 27.5505 34.1856C27.0261 33.6611 26.7639 33.0113 26.7639 32.2361C26.7639 31.4609 27.0261 30.811 27.5505 30.2866C28.0749 29.7622 28.7248 29.5 29.5 29.5C30.2752 29.5 30.9251 29.7622 31.4495 30.2866C31.9739 30.811 32.2361 31.4609 32.2361 32.2361C32.2361 33.0113 31.9739 33.6611 31.4495 34.1856C30.9251 34.71 30.2752 34.9722 29.5 34.9722ZM40.4444 34.9722C39.6692 34.9722 39.0194 34.71 38.495 34.1856C37.9705 33.6611 37.7083 33.0113 37.7083 32.2361C37.7083 31.4609 37.9705 30.811 38.495 30.2866C39.0194 29.7622 39.6692 29.5 40.4444 29.5C41.2197 29.5 41.8695 29.7622 42.3939 30.2866C42.9183 30.811 43.1806 31.4609 43.1806 32.2361C43.1806 33.0113 42.9183 33.6611 42.3939 34.1856C41.8695 34.71 41.2197 34.9722 40.4444 34.9722ZM10.3472 56.8611C8.84236 56.8611 7.55411 56.3253 6.48247 55.2536C5.41082 54.182 4.875 52.8937 4.875 51.3889V13.0833C4.875 11.5784 5.41082 10.2902 6.48247 9.21854C7.55411 8.1469 8.84236 7.61108 10.3472 7.61108H13.0833V2.13885H18.5556V7.61108H40.4444V2.13885H45.9167V7.61108H48.6528C50.1576 7.61108 51.4459 8.1469 52.5175 9.21854C53.5892 10.2902 54.125 11.5784 54.125 13.0833V51.3889C54.125 52.8937 53.5892 54.182 52.5175 55.2536C51.4459 56.3253 50.1576 56.8611 48.6528 56.8611H10.3472ZM10.3472 51.3889H48.6528V24.0277H10.3472V51.3889ZM10.3472 18.5555H48.6528V13.0833H10.3472V18.5555Z" fill="black"/>
</svg>
